<?xml version="1.0" encoding="UTF-8"?>
<svg id="Layer_2" data-name="Layer 2" xmlns="http://www.w3.org/2000/svg" viewBox="0 0 1258.8 268.36">
  <defs>
    <style>
      .cls-1 {
        fill: #1b56bf;
      }

      .cls-1, .cls-2 {
        stroke-width: 0px;
      }

      .cls-2 {
        fill: #35eddf;
      }
    </style>
  </defs>
  <g id="Layer_4" data-name="Layer 4">
    <g>
      <g>
        <g>
          <path class="cls-2" d="M100.22,200.49h-.5v-.11h.5s0,.07,0,.11Z"/>
          <path class="cls-2" d="M200.4,227.42c-8.43,27.26-38.07,45.22-66.14,40.05-28.22-6.37-40.69-21.24-46.07-40.14h15.86c14.05,30.91,63.5,35.66,79.63.09h16.72Z"/>
          <path class="cls-2" d="M203.35,189.12h-15.62v-28.18c.37-23.55-20.17-44.15-43.72-43.72-43.43,2.2-44.76,38.54-44.06,71.9h-15.65c.02-9.28.36-18.78.37-28.18-.83-34.85,32.83-64.27,67.22-58.82,14.08,1.84,27.24,8.89,36.62,19.56,17.13,16.95,15.14,45.34,14.84,67.43Z"/>
        </g>
        <path class="cls-1" d="M287.92,108.78c-1.15,25.15,5.87,66.87-14.24,86.55-20.59,23.72-42.77,20.55-70.73,20.45-.26,2.31-.67,4.61-1.21,6.87h-16.18c.73-2.22,1.28-4.51,1.65-6.87h-15.43v-15.3h15.96v-6.6h15.62v6.6c5.55-.51,27.38.74,32.45-.59,20.74-3.32,36.59-21.51,36.51-43.13-.45-33.94,8.67-84.54-37.91-91.33-26.26-3.91-50.76,18.32-49.54,44.87-4.53-3.71-9.61-6.82-15.12-9.19,11.5-72.91,116.19-66.12,118.18,7.66Z"/>
        <path class="cls-1" d="M249.4,20.52c-.47,27.37-41.18,27.36-41.64,0,.47-27.37,41.18-27.36,41.64,0Z"/>
        <path class="cls-1" d="M.29,108.78c1.15,25.15-5.87,66.87,14.24,86.55,20.59,23.72,42.77,20.55,70.73,20.45.26,2.31.67,4.61,1.21,6.87h16.18c-.73-2.22-1.28-4.51-1.65-6.87h15.43s0-15.3,0-15.3h-15.96v-6.6s-15.62,0-15.62,0v6.6c-5.55-.51-27.38.74-32.45-.59-20.74-3.32-36.59-21.51-36.51-43.13.45-33.94-8.67-84.54,37.91-91.33,26.26-3.91,50.76,18.32,49.54,44.87,4.53-3.71,9.61-6.82,15.12-9.19C106.97,28.21,2.28,35,.29,108.78Z"/>
        <path class="cls-1" d="M38.81,20.52c.47,27.37,41.18,27.36,41.64,0-.47-27.37-41.18-27.36-41.64,0Z"/>
        <path class="cls-2" d="M164.83,72.9c-.47,27.37-41.18,27.36-41.64,0,.47-27.37,41.18-27.36,41.64,0Z"/>
      </g>
      <g>
        <path class="cls-2" d="M426.09,65.8c37.13,0,62.92,27.44,62.92,68.38s-25.79,68.38-62.92,68.38-62.87-27.44-62.87-68.38,25.7-68.38,62.87-68.38ZM426.09,181.17c24.32,0,38.69-17.21,38.69-46.99s-14.36-46.99-38.69-46.99-38.64,17.21-38.64,46.99,14.27,46.99,38.64,46.99Z"/>
        <path class="cls-1" d="M509.54,93.04h19.73v62.19c0,19.5,9.56,29.85,26.55,29.85s26.55-10.35,26.55-29.85v-62.19h19.73v63.01c0,28.8-18.49,46.51-46.28,46.51s-46.28-17.7-46.28-46.51v-63.01Z"/>
        <path class="cls-1" d="M709.88,112.69h-34.88v89.86h-19.73v-89.86h-34.88v-17.4h89.49v17.4Z"/>
        <path class="cls-1" d="M728.16,202.56v-107.27h52.47c22.73,0,37.54,12.83,37.54,31.99,0,16.92-11.74,28.09-29.78,28.62,8.21.6,14.63,6.41,19.32,16.84l13.35,29.82h-21.79l-13.43-29.74c-3.75-8.29-8.03-10.84-18.64-10.84h-19.32v40.58h-19.73ZM778.23,145.1c12.68,0,20.18-6.19,20.18-16.69s-7.24-16.05-20.22-16.05h-30.3v32.74h30.34Z"/>
        <path class="cls-1" d="M914.88,95.29v17.4h-53.56v27.9h49.13v16.88h-49.13v27.68h54.98v17.4h-74.71v-107.27h73.29Z"/>
        <path class="cls-1" d="M931.15,202.56l38.48-107.27h28.43l37.96,107.27h-20.97l-8.48-25.24h-46.28l-8.59,25.24h-20.55ZM1000.94,160.51l-17.37-51.83-17.59,51.83h34.96Z"/>
        <path class="cls-1" d="M1096.83,185.08c16.02,0,25.99-9.26,29.25-27.15h19.65c-4.28,27.79-22.65,44.63-48.95,44.63-30.3,0-51.31-22.43-51.31-55.88s21-55.88,51.31-55.88c26.29,0,44.67,16.84,48.95,44.63h-19.65c-3.26-17.89-13.24-27.15-29.25-27.15-19.88,0-31.54,14.06-31.54,38.41s11.66,38.41,31.54,38.41Z"/>
        <path class="cls-1" d="M1258.8,202.56h-19.73v-44.78h-51.31v44.78h-19.73v-107.27h19.73v45.01h51.31v-45.01h19.73v107.27Z"/>
      </g>
    </g>
  </g>
</svg>